<?xml version="1.0" encoding="UTF-8"?>
<svg xmlns="http://www.w3.org/2000/svg" viewBox="0 0 2490 1280" width="2490" height="1280">
<defs>
  <marker id="arrow-green" markerWidth="8" markerHeight="6" refX="8" refY="3" orient="auto">
    <polygon points="0 0, 8 3, 0 6" fill="#4fc3f7"/></marker>
  <marker id="arrow-orange" markerWidth="8" markerHeight="6" refX="8" refY="3" orient="auto">
    <polygon points="0 0, 8 3, 0 6" fill="#ff9800"/></marker>
</defs>
<rect width="2490" height="1280" fill="#0a0a1a"/>
<text x="30" y="35" font-size="22" font-weight="bold" fill="#e94560" font-family="monospace">侠客行 MUD — 地图总览</text>
<text x="30" y="55" font-size="12" fill="#888" font-family="monospace">MAP: 4 | ROOM: 47 | 连线: 73 | 跨地图: 10 | 孤立: 0</text>
<path d="M1515,156 Q840,116 165,248" fill="none" stroke="#ff9800" stroke-width="1.5" stroke-dasharray="6,3" marker-end="url(#arrow-orange)" opacity="0.7"/>
<path d="M165,1012 Q270,116 375,156" fill="none" stroke="#ff9800" stroke-width="1.5" stroke-dasharray="6,3" marker-end="url(#arrow-orange)" opacity="0.7"/>
<path d="M1005,920 Q1470,116 1935,156" fill="none" stroke="#ff9800" stroke-width="1.5" stroke-dasharray="6,3" marker-end="url(#arrow-orange)" opacity="0.7"/>
<path d="M1005,920 Q1620,392 2235,432" fill="none" stroke="#ff9800" stroke-width="1.5" stroke-dasharray="6,3" marker-end="url(#arrow-orange)" opacity="0.7"/>
<path d="M2235,432 Q1620,392 1005,920" fill="none" stroke="#ff9800" stroke-width="1.5" stroke-dasharray="6,3" marker-end="url(#arrow-orange)" opacity="0.7"/>
<rect x="60" y="60" width="1290" height="428" rx="8" fill="#1a3a2a" stroke="#ffd700" stroke-width="3"/>
<text x="75" y="88" font-size="15" font-weight="bold" fill="#ffd700" font-family="monospace">稻香村</text>
<text x="75" y="104" font-size="10" fill="#888" font-family="monospace">Lv 1-10 | 11 房间 | 稻香村广场</text>
<line x1="165" y1="156" x2="165" y2="248" stroke="#4fc3f7" stroke-width="1" marker-end="url(#arrow-green)" opacity="0.6"/>
<line x1="165" y1="156" x2="375" y2="248" stroke="#4fc3f7" stroke-width="1" marker-end="url(#arrow-green)" opacity="0.6"/>
<line x1="165" y1="156" x2="585" y2="248" stroke="#4fc3f7" stroke-width="1" marker-end="url(#arrow-green)" opacity="0.6"/>
<line x1="165" y1="156" x2="795" y2="248" stroke="#4fc3f7" stroke-width="1" marker-end="url(#arrow-green)" opacity="0.6"/>
<line x1="165" y1="248" x2="165" y2="156" stroke="#4fc3f7" stroke-width="1" marker-end="url(#arrow-green)" opacity="0.6"/>
<line x1="375" y1="248" x2="165" y2="340" stroke="#4fc3f7" stroke-width="1" marker-end="url(#arrow-green)" opacity="0.6"/>
<line x1="375" y1="248" x2="165" y2="156" stroke="#4fc3f7" stroke-width="1" marker-end="url(#arrow-green)" opacity="0.6"/>
<line x1="585" y1="248" x2="165" y2="156" stroke="#4fc3f7" stroke-width="1" marker-end="url(#arrow-green)" opacity="0.6"/>
<line x1="585" y1="248" x2="375" y2="340" stroke="#4fc3f7" stroke-width="1" marker-end="url(#arrow-green)" opacity="0.6"/>
<line x1="795" y1="248" x2="585" y2="340" stroke="#4fc3f7" stroke-width="1" marker-end="url(#arrow-green)" opacity="0.6"/>
<line x1="795" y1="248" x2="165" y2="156" stroke="#4fc3f7" stroke-width="1" marker-end="url(#arrow-green)" opacity="0.6"/>
<line x1="795" y1="248" x2="795" y2="340" stroke="#4fc3f7" stroke-width="1" marker-end="url(#arrow-green)" opacity="0.6"/>
<line x1="795" y1="248" x2="1005" y2="340" stroke="#4fc3f7" stroke-width="1" marker-end="url(#arrow-green)" opacity="0.6"/>
<line x1="795" y1="248" x2="1215" y2="340" stroke="#4fc3f7" stroke-width="1" marker-end="url(#arrow-green)" opacity="0.6"/>
<line x1="1215" y1="340" x2="795" y2="248" stroke="#4fc3f7" stroke-width="1" marker-end="url(#arrow-green)" opacity="0.6"/>
<line x1="1005" y1="340" x2="795" y2="248" stroke="#4fc3f7" stroke-width="1" marker-end="url(#arrow-green)" opacity="0.6"/>
<line x1="585" y1="340" x2="795" y2="248" stroke="#4fc3f7" stroke-width="1" marker-end="url(#arrow-green)" opacity="0.6"/>
<line x1="795" y1="340" x2="795" y2="248" stroke="#4fc3f7" stroke-width="1" marker-end="url(#arrow-green)" opacity="0.6"/>
<line x1="375" y1="340" x2="585" y2="248" stroke="#4fc3f7" stroke-width="1" marker-end="url(#arrow-green)" opacity="0.6"/>
<line x1="165" y1="340" x2="375" y2="248" stroke="#4fc3f7" stroke-width="1" marker-end="url(#arrow-green)" opacity="0.6"/>
<line x1="375" y1="156" x2="375" y2="248" stroke="#4fc3f7" stroke-width="1" marker-end="url(#arrow-green)" opacity="0.6"/>
<rect x="75" y="130" width="180" height="52" rx="4"
      fill="#0f3460" stroke="#ffd700"
      stroke-width="2.5"/>
<text x="83" y="148" font-size="12" fill="#eee" font-family="monospace" font-weight="bold">稻香村广场</text>
<text x="83" y="164" font-size="9" fill="#888" font-family="monospace">Daoxiang_village_center</text>
<text x="245" y="164" font-size="9" fill="#4fc3f7" font-family="monospace" text-anchor="end">4↗</text>
<rect x="219" y="134" width="30" height="14" rx="3" fill="#ffd700" opacity="0.8"/>
<text x="234" y="145" font-size="8" fill="#0a0a1a" font-family="monospace" text-anchor="middle">入口</text>
<rect x="285" y="130" width="180" height="52" rx="4"
      fill="#0f3460" stroke="#1a4a7a"
      stroke-width="1"/>
<text x="293" y="148" font-size="12" fill="#eee" font-family="monospace" font-weight="bold">稻香村东门外</text>
<text x="293" y="164" font-size="9" fill="#888" font-family="monospace">Daoxiang_village_eastdoor</text>
<text x="455" y="164" font-size="9" fill="#4fc3f7" font-family="monospace" text-anchor="end">1↗</text>
<rect x="75" y="222" width="180" height="52" rx="4"
      fill="#0f3460" stroke="#1a4a7a"
      stroke-width="1"/>
<text x="83" y="240" font-size="12" fill="#eee" font-family="monospace" font-weight="bold">稻香村北街</text>
<text x="83" y="256" font-size="9" fill="#888" font-family="monospace">Daoxiang_village_north</text>
<text x="245" y="256" font-size="9" fill="#4fc3f7" font-family="monospace" text-anchor="end">1↗</text>
<rect x="285" y="222" width="180" height="52" rx="4"
      fill="#0f3460" stroke="#1a4a7a"
      stroke-width="1"/>
<text x="293" y="240" font-size="12" fill="#eee" font-family="monospace" font-weight="bold">稻香村东街</text>
<text x="293" y="256" font-size="9" fill="#888" font-family="monospace">Daoxiang_village_east</text>
<text x="455" y="256" font-size="9" fill="#4fc3f7" font-family="monospace" text-anchor="end">2↗</text>
<rect x="495" y="222" width="180" height="52" rx="4"
      fill="#0f3460" stroke="#1a4a7a"
      stroke-width="1"/>
<text x="503" y="240" font-size="12" fill="#eee" font-family="monospace" font-weight="bold">稻香村南街</text>
<text x="503" y="256" font-size="9" fill="#888" font-family="monospace">Daoxiang_village_south</text>
<text x="665" y="256" font-size="9" fill="#4fc3f7" font-family="monospace" text-anchor="end">2↗</text>
<rect x="705" y="222" width="180" height="52" rx="4"
      fill="#0f3460" stroke="#1a4a7a"
      stroke-width="1"/>
<text x="713" y="240" font-size="12" fill="#eee" font-family="monospace" font-weight="bold">稻香村西街</text>
<text x="713" y="256" font-size="9" fill="#888" font-family="monospace">Daoxiang_village_west</text>
<text x="875" y="256" font-size="9" fill="#4fc3f7" font-family="monospace" text-anchor="end">5↗</text>
<rect x="75" y="314" width="180" height="52" rx="4"
      fill="#0f3460" stroke="#1a4a7a"
      stroke-width="1"/>
<text x="83" y="332" font-size="12" fill="#eee" font-family="monospace" font-weight="bold">稻香村田边</text>
<text x="83" y="348" font-size="9" fill="#888" font-family="monospace">Daoxiang_village_field</text>
<text x="245" y="348" font-size="9" fill="#4fc3f7" font-family="monospace" text-anchor="end">1↗</text>
<rect x="285" y="314" width="180" height="52" rx="4"
      fill="#0f3460" stroke="#1a4a7a"
      stroke-width="1"/>
<text x="293" y="332" font-size="12" fill="#eee" font-family="monospace" font-weight="bold">稻香村江边</text>
<text x="293" y="348" font-size="9" fill="#888" font-family="monospace">Daoxiang_village_river</text>
<text x="455" y="348" font-size="9" fill="#4fc3f7" font-family="monospace" text-anchor="end">1↗</text>
<rect x="495" y="314" width="180" height="52" rx="4"
      fill="#0f3460" stroke="#1a4a7a"
      stroke-width="1"/>
<text x="503" y="332" font-size="12" fill="#eee" font-family="monospace" font-weight="bold">稻香村杂货铺</text>
<text x="503" y="348" font-size="9" fill="#888" font-family="monospace">Daoxiang_village_shop</text>
<text x="665" y="348" font-size="9" fill="#4fc3f7" font-family="monospace" text-anchor="end">1↗</text>
<rect x="705" y="314" width="180" height="52" rx="4"
      fill="#0f3460" stroke="#1a4a7a"
      stroke-width="1"/>
<text x="713" y="332" font-size="12" fill="#eee" font-family="monospace" font-weight="bold">稻香村练武场</text>
<text x="713" y="348" font-size="9" fill="#888" font-family="monospace">Daoxiang_village_training</text>
<text x="875" y="348" font-size="9" fill="#4fc3f7" font-family="monospace" text-anchor="end">1↗</text>
<rect x="915" y="314" width="180" height="52" rx="4"
      fill="#0f3460" stroke="#1a4a7a"
      stroke-width="1"/>
<text x="923" y="332" font-size="12" fill="#eee" font-family="monospace" font-weight="bold">稻香村铁匠铺</text>
<text x="923" y="348" font-size="9" fill="#888" font-family="monospace">Daoxiang_village_blacksmith</text>
<text x="1085" y="348" font-size="9" fill="#4fc3f7" font-family="monospace" text-anchor="end">1↗</text>
<rect x="1125" y="314" width="180" height="52" rx="4"
      fill="#0f3460" stroke="#1a4a7a"
      stroke-width="1"/>
<text x="1133" y="332" font-size="12" fill="#eee" font-family="monospace" font-weight="bold">稻香村客栈</text>
<text x="1133" y="348" font-size="9" fill="#888" font-family="monospace">Daoxiang_village_inn</text>
<text x="1295" y="348" font-size="9" fill="#4fc3f7" font-family="monospace" text-anchor="end">1↗</text>
<rect x="1410" y="60" width="660" height="612" rx="8" fill="#1a2a3a" stroke="#4fc3f7" stroke-width="1.5"/>
<text x="1425" y="88" font-size="15" font-weight="bold" fill="#ffd700" font-family="monospace">迷雾森林</text>
<text x="1425" y="104" font-size="10" fill="#888" font-family="monospace">Lv 5-15 | 12 房间 | 迷雾森林边缘</text>
<line x1="1515" y1="156" x2="1515" y2="248" stroke="#4fc3f7" stroke-width="1" marker-end="url(#arrow-green)" opacity="0.6"/>
<line x1="1515" y1="248" x2="1515" y2="156" stroke="#4fc3f7" stroke-width="1" marker-end="url(#arrow-green)" opacity="0.6"/>
<line x1="1515" y1="248" x2="1515" y2="340" stroke="#4fc3f7" stroke-width="1" marker-end="url(#arrow-green)" opacity="0.6"/>
<line x1="1515" y1="248" x2="1725" y2="340" stroke="#4fc3f7" stroke-width="1" marker-end="url(#arrow-green)" opacity="0.6"/>
<line x1="1515" y1="248" x2="1935" y2="340" stroke="#4fc3f7" stroke-width="1" marker-end="url(#arrow-green)" opacity="0.6"/>
<line x1="1515" y1="340" x2="1515" y2="248" stroke="#4fc3f7" stroke-width="1" marker-end="url(#arrow-green)" opacity="0.6"/>
<line x1="1515" y1="340" x2="1515" y2="432" stroke="#4fc3f7" stroke-width="1" marker-end="url(#arrow-green)" opacity="0.6"/>
<line x1="1515" y1="432" x2="1515" y2="340" stroke="#4fc3f7" stroke-width="1" marker-end="url(#arrow-green)" opacity="0.6"/>
<line x1="1515" y1="432" x2="1515" y2="524" stroke="#4fc3f7" stroke-width="1" marker-end="url(#arrow-green)" opacity="0.6"/>
<line x1="1515" y1="524" x2="1515" y2="432" stroke="#4fc3f7" stroke-width="1" marker-end="url(#arrow-green)" opacity="0.6"/>
<line x1="1725" y1="340" x2="1515" y2="248" stroke="#4fc3f7" stroke-width="1" marker-end="url(#arrow-green)" opacity="0.6"/>
<line x1="1725" y1="340" x2="1725" y2="432" stroke="#4fc3f7" stroke-width="1" marker-end="url(#arrow-green)" opacity="0.6"/>
<line x1="1725" y1="432" x2="1725" y2="340" stroke="#4fc3f7" stroke-width="1" marker-end="url(#arrow-green)" opacity="0.6"/>
<line x1="1725" y1="432" x2="1725" y2="432" stroke="#4fc3f7" stroke-width="1" marker-end="url(#arrow-green)" opacity="0.6"/>
<line x1="1725" y1="156" x2="1725" y2="432" stroke="#4fc3f7" stroke-width="1" marker-end="url(#arrow-green)" opacity="0.6"/>
<line x1="1725" y1="156" x2="1725" y2="248" stroke="#4fc3f7" stroke-width="1" marker-end="url(#arrow-green)" opacity="0.6"/>
<line x1="1725" y1="156" x2="1935" y2="248" stroke="#4fc3f7" stroke-width="1" marker-end="url(#arrow-green)" opacity="0.6"/>
<line x1="1725" y1="248" x2="1725" y2="156" stroke="#4fc3f7" stroke-width="1" marker-end="url(#arrow-green)" opacity="0.6"/>
<line x1="1935" y1="248" x2="1725" y2="156" stroke="#4fc3f7" stroke-width="1" marker-end="url(#arrow-green)" opacity="0.6"/>
<line x1="1935" y1="340" x2="1515" y2="248" stroke="#4fc3f7" stroke-width="1" marker-end="url(#arrow-green)" opacity="0.6"/>
<line x1="1935" y1="156" x2="1935" y2="340" stroke="#4fc3f7" stroke-width="1" marker-end="url(#arrow-green)" opacity="0.6"/>
<rect x="1425" y="130" width="180" height="52" rx="4"
      fill="#0f3460" stroke="#ffd700"
      stroke-width="2.5"/>
<text x="1433" y="148" font-size="12" fill="#eee" font-family="monospace" font-weight="bold">迷雾森林边缘</text>
<text x="1433" y="164" font-size="9" fill="#888" font-family="monospace">Cloud_forest_outside</text>
<text x="1595" y="164" font-size="9" fill="#4fc3f7" font-family="monospace" text-anchor="end">2↗</text>
<rect x="1569" y="134" width="30" height="14" rx="3" fill="#ffd700" opacity="0.8"/>
<text x="1584" y="145" font-size="8" fill="#0a0a1a" font-family="monospace" text-anchor="middle">入口</text>
<rect x="1635" y="130" width="180" height="52" rx="4"
      fill="#0f3460" stroke="#1a4a7a"
      stroke-width="1"/>
<text x="1643" y="148" font-size="12" fill="#eee" font-family="monospace" font-weight="bold">神秘洞穴</text>
<text x="1643" y="164" font-size="9" fill="#888" font-family="monospace">Cloud_forest_cave</text>
<text x="1805" y="164" font-size="9" fill="#4fc3f7" font-family="monospace" text-anchor="end">3↗</text>
<rect x="1845" y="130" width="180" height="52" rx="4"
      fill="#0f3460" stroke="#1a4a7a"
      stroke-width="1"/>
<text x="1853" y="148" font-size="12" fill="#eee" font-family="monospace" font-weight="bold">林中瀑布</text>
<text x="1853" y="164" font-size="9" fill="#888" font-family="monospace">Cloud_forest_waterfall</text>
<text x="2015" y="164" font-size="9" fill="#4fc3f7" font-family="monospace" text-anchor="end">1↗</text>
<rect x="1425" y="222" width="180" height="52" rx="4"
      fill="#0f3460" stroke="#1a4a7a"
      stroke-width="1"/>
<text x="1433" y="240" font-size="12" fill="#eee" font-family="monospace" font-weight="bold">迷雾森林深处</text>
<text x="1433" y="256" font-size="9" fill="#888" font-family="monospace">Cloud_forest_deep</text>
<text x="1595" y="256" font-size="9" fill="#4fc3f7" font-family="monospace" text-anchor="end">4↗</text>
<rect x="1635" y="222" width="180" height="52" rx="4"
      fill="#0f3460" stroke="#1a4a7a"
      stroke-width="1"/>
<text x="1643" y="240" font-size="12" fill="#eee" font-family="monospace" font-weight="bold">矿工歇脚点</text>
<text x="1643" y="256" font-size="9" fill="#888" font-family="monospace">Cloud_forest_mining_rest</text>
<text x="1805" y="256" font-size="9" fill="#4fc3f7" font-family="monospace" text-anchor="end">1↗</text>
<rect x="1845" y="222" width="180" height="52" rx="4"
      fill="#0f3460" stroke="#1a4a7a"
      stroke-width="1"/>
<text x="1853" y="240" font-size="12" fill="#eee" font-family="monospace" font-weight="bold">地下墓穴</text>
<text x="1853" y="256" font-size="9" fill="#888" font-family="monospace">Cloud_forest_cave_cemetery</text>
<text x="2015" y="256" font-size="9" fill="#4fc3f7" font-family="monospace" text-anchor="end">1↗</text>
<rect x="1425" y="314" width="180" height="52" rx="4"
      fill="#0f3460" stroke="#1a4a7a"
      stroke-width="1"/>
<text x="1433" y="332" font-size="12" fill="#eee" font-family="monospace" font-weight="bold">迷雾森林深处</text>
<text x="1433" y="348" font-size="9" fill="#888" font-family="monospace">Cloud_forest_deep2</text>
<text x="1595" y="348" font-size="9" fill="#4fc3f7" font-family="monospace" text-anchor="end">2↗</text>
<rect x="1635" y="314" width="180" height="52" rx="4"
      fill="#0f3460" stroke="#1a4a7a"
      stroke-width="1"/>
<text x="1643" y="332" font-size="12" fill="#eee" font-family="monospace" font-weight="bold">迷雾森林深处</text>
<text x="1643" y="348" font-size="9" fill="#888" font-family="monospace">Cloud_forest_deep3</text>
<text x="1805" y="348" font-size="9" fill="#4fc3f7" font-family="monospace" text-anchor="end">2↗</text>
<rect x="1845" y="314" width="180" height="52" rx="4"
      fill="#0f3460" stroke="#1a4a7a"
      stroke-width="1"/>
<text x="1853" y="332" font-size="12" fill="#eee" font-family="monospace" font-weight="bold">迷雾森林深处</text>
<text x="1853" y="348" font-size="9" fill="#888" font-family="monospace">Cloud_forest_deep4</text>
<text x="2015" y="348" font-size="9" fill="#4fc3f7" font-family="monospace" text-anchor="end">1↗</text>
<rect x="1425" y="406" width="180" height="52" rx="4"
      fill="#0f3460" stroke="#1a4a7a"
      stroke-width="1"/>
<text x="1433" y="424" font-size="12" fill="#eee" font-family="monospace" font-weight="bold">林间小径</text>
<text x="1433" y="440" font-size="9" fill="#888" font-family="monospace">Cloud_forest_path</text>
<text x="1595" y="440" font-size="9" fill="#4fc3f7" font-family="monospace" text-anchor="end">2↗</text>
<rect x="1635" y="406" width="180" height="52" rx="4"
      fill="#0f3460" stroke="#1a4a7a"
      stroke-width="1"/>
<text x="1643" y="424" font-size="12" fill="#eee" font-family="monospace" font-weight="bold">乱葬岗</text>
<text x="1643" y="440" font-size="9" fill="#888" font-family="monospace">Cloud_forest_cemetery</text>
<text x="1805" y="440" font-size="9" fill="#4fc3f7" font-family="monospace" text-anchor="end">2↗</text>
<rect x="1425" y="498" width="180" height="52" rx="4"
      fill="#0f3460" stroke="#1a4a7a"
      stroke-width="1"/>
<text x="1433" y="516" font-size="12" fill="#eee" font-family="monospace" font-weight="bold">药师草庐</text>
<text x="1433" y="532" font-size="9" fill="#888" font-family="monospace">Cloud_forest_medic_home</text>
<text x="1595" y="532" font-size="9" fill="#4fc3f7" font-family="monospace" text-anchor="end">1↗</text>
<rect x="2130" y="60" width="240" height="520" rx="8" fill="#2a1a3a" stroke="#4fc3f7" stroke-width="1.5"/>
<text x="2145" y="88" font-size="15" font-weight="bold" fill="#ffd700" font-family="monospace">洛阳城</text>
<text x="2145" y="104" font-size="10" fill="#888" font-family="monospace">Lv 10-50 | 10 房间 | 洛阳城中心广场</text>
<line x1="2235" y1="432" x2="2235" y2="340" stroke="#4fc3f7" stroke-width="1" marker-end="url(#arrow-green)" opacity="0.6"/>
<line x1="2235" y1="156" x2="2235" y2="248" stroke="#4fc3f7" stroke-width="1" marker-end="url(#arrow-green)" opacity="0.6"/>
<line x1="2235" y1="248" x2="2235" y2="156" stroke="#4fc3f7" stroke-width="1" marker-end="url(#arrow-green)" opacity="0.6"/>
<line x1="2235" y1="248" x2="2235" y2="340" stroke="#4fc3f7" stroke-width="1" marker-end="url(#arrow-green)" opacity="0.6"/>
<line x1="2235" y1="340" x2="2235" y2="248" stroke="#4fc3f7" stroke-width="1" marker-end="url(#arrow-green)" opacity="0.6"/>
<line x1="2235" y1="340" x2="2235" y2="432" stroke="#4fc3f7" stroke-width="1" marker-end="url(#arrow-green)" opacity="0.6"/>
<rect x="2145" y="130" width="180" height="52" rx="4"
      fill="#0f3460" stroke="#ffd700"
      stroke-width="2.5"/>
<text x="2153" y="148" font-size="12" fill="#eee" font-family="monospace" font-weight="bold">洛阳城中心广场</text>
<text x="2153" y="164" font-size="9" fill="#888" font-family="monospace">Luoyang_city_center</text>
<text x="2315" y="164" font-size="9" fill="#4fc3f7" font-family="monospace" text-anchor="end">1↗</text>
<rect x="2289" y="134" width="30" height="14" rx="3" fill="#ffd700" opacity="0.8"/>
<text x="2304" y="145" font-size="8" fill="#0a0a1a" font-family="monospace" text-anchor="middle">入口</text>
<rect x="2145" y="222" width="180" height="52" rx="4"
      fill="#0f3460" stroke="#1a4a7a"
      stroke-width="1"/>
<text x="2153" y="240" font-size="12" fill="#eee" font-family="monospace" font-weight="bold">洛阳城中心南街</text>
<text x="2153" y="256" font-size="9" fill="#888" font-family="monospace">Luoyang_city_south_street</text>
<text x="2315" y="256" font-size="9" fill="#4fc3f7" font-family="monospace" text-anchor="end">2↗</text>
<rect x="2145" y="314" width="180" height="52" rx="4"
      fill="#0f3460" stroke="#1a4a7a"
      stroke-width="1"/>
<text x="2153" y="332" font-size="12" fill="#eee" font-family="monospace" font-weight="bold">洛阳城南门</text>
<text x="2153" y="348" font-size="9" fill="#888" font-family="monospace">Luoyang_city_south_gate</text>
<text x="2315" y="348" font-size="9" fill="#4fc3f7" font-family="monospace" text-anchor="end">2↗</text>
<rect x="2145" y="406" width="180" height="52" rx="4"
      fill="#0f3460" stroke="#ff9800"
      stroke-width="1"/>
<text x="2153" y="424" font-size="12" fill="#eee" font-family="monospace" font-weight="bold">洛阳城南郊</text>
<text x="2153" y="440" font-size="9" fill="#888" font-family="monospace">Luoyang_city_south_side</text>
<text x="2315" y="440" font-size="9" fill="#4fc3f7" font-family="monospace" text-anchor="end">2↗</text>
<rect x="2289" y="410" width="30" height="14" rx="3" fill="#ff9800" opacity="0.6"/>
<text x="2304" y="421" font-size="7" fill="#fff" font-family="monospace" text-anchor="middle">跨图</text>
<rect x="60" y="732" width="1290" height="428" rx="8" fill="#1a1a3a" stroke="#4fc3f7" stroke-width="1.5"/>
<text x="75" y="760" font-size="15" font-weight="bold" fill="#ffd700" font-family="monospace">青云山</text>
<text x="75" y="776" font-size="10" fill="#888" font-family="monospace">Lv 15-30 | 15 房间 | 青云山山顶</text>
<line x1="165" y1="920" x2="165" y2="1012" stroke="#4fc3f7" stroke-width="1" marker-end="url(#arrow-green)" opacity="0.6"/>
<line x1="165" y1="828" x2="165" y2="920" stroke="#4fc3f7" stroke-width="1" marker-end="url(#arrow-green)" opacity="0.6"/>
<line x1="165" y1="828" x2="375" y2="920" stroke="#4fc3f7" stroke-width="1" marker-end="url(#arrow-green)" opacity="0.6"/>
<line x1="165" y1="828" x2="585" y2="920" stroke="#4fc3f7" stroke-width="1" marker-end="url(#arrow-green)" opacity="0.6"/>
<line x1="375" y1="920" x2="165" y2="828" stroke="#4fc3f7" stroke-width="1" marker-end="url(#arrow-green)" opacity="0.6"/>
<line x1="585" y1="920" x2="165" y2="828" stroke="#4fc3f7" stroke-width="1" marker-end="url(#arrow-green)" opacity="0.6"/>
<line x1="375" y1="828" x2="165" y2="1012" stroke="#4fc3f7" stroke-width="1" marker-end="url(#arrow-green)" opacity="0.6"/>
<line x1="585" y1="828" x2="165" y2="828" stroke="#4fc3f7" stroke-width="1" marker-end="url(#arrow-green)" opacity="0.6"/>
<line x1="795" y1="828" x2="585" y2="828" stroke="#4fc3f7" stroke-width="1" marker-end="url(#arrow-green)" opacity="0.6"/>
<line x1="1005" y1="828" x2="795" y2="828" stroke="#4fc3f7" stroke-width="1" marker-end="url(#arrow-green)" opacity="0.6"/>
<line x1="1215" y1="828" x2="795" y2="920" stroke="#4fc3f7" stroke-width="1" marker-end="url(#arrow-green)" opacity="0.6"/>
<line x1="1215" y1="828" x2="1005" y2="920" stroke="#4fc3f7" stroke-width="1" marker-end="url(#arrow-green)" opacity="0.6"/>
<line x1="795" y1="920" x2="1215" y2="828" stroke="#4fc3f7" stroke-width="1" marker-end="url(#arrow-green)" opacity="0.6"/>
<line x1="795" y1="920" x2="1005" y2="828" stroke="#4fc3f7" stroke-width="1" marker-end="url(#arrow-green)" opacity="0.6"/>
<line x1="1005" y1="920" x2="1215" y2="828" stroke="#4fc3f7" stroke-width="1" marker-end="url(#arrow-green)" opacity="0.6"/>
<rect x="75" y="802" width="180" height="52" rx="4"
      fill="#0f3460" stroke="#ffd700"
      stroke-width="2.5"/>
<text x="83" y="820" font-size="12" fill="#eee" font-family="monospace" font-weight="bold">青云山山顶</text>
<text x="83" y="836" font-size="9" fill="#888" font-family="monospace">Qingyun_mountain_top</text>
<text x="245" y="836" font-size="9" fill="#4fc3f7" font-family="monospace" text-anchor="end">3↗</text>
<rect x="219" y="806" width="30" height="14" rx="3" fill="#ffd700" opacity="0.8"/>
<text x="234" y="817" font-size="8" fill="#0a0a1a" font-family="monospace" text-anchor="middle">入口</text>
<rect x="285" y="802" width="180" height="52" rx="4"
      fill="#0f3460" stroke="#1a4a7a"
      stroke-width="1"/>
<text x="293" y="820" font-size="12" fill="#eee" font-family="monospace" font-weight="bold">青云山底</text>
<text x="293" y="836" font-size="9" fill="#888" font-family="monospace">Qingyun_mountain_foot</text>
<text x="455" y="836" font-size="9" fill="#4fc3f7" font-family="monospace" text-anchor="end">1↗</text>
<rect x="495" y="802" width="180" height="52" rx="4"
      fill="#0f3460" stroke="#1a4a7a"
      stroke-width="1"/>
<text x="503" y="820" font-size="12" fill="#eee" font-family="monospace" font-weight="bold">青云山后山</text>
<text x="503" y="836" font-size="9" fill="#888" font-family="monospace">Qingyun_mountain_back</text>
<text x="665" y="836" font-size="9" fill="#4fc3f7" font-family="monospace" text-anchor="end">1↗</text>
<rect x="705" y="802" width="180" height="52" rx="4"
      fill="#0f3460" stroke="#1a4a7a"
      stroke-width="1"/>
<text x="713" y="820" font-size="12" fill="#eee" font-family="monospace" font-weight="bold">云海小道</text>
<text x="713" y="836" font-size="9" fill="#888" font-family="monospace">Qingyun_mountain_backpath</text>
<text x="875" y="836" font-size="9" fill="#4fc3f7" font-family="monospace" text-anchor="end">1↗</text>
<rect x="915" y="802" width="180" height="52" rx="4"
      fill="#0f3460" stroke="#1a4a7a"
      stroke-width="1"/>
<text x="923" y="820" font-size="12" fill="#eee" font-family="monospace" font-weight="bold">迷雾谷</text>
<text x="923" y="836" font-size="9" fill="#888" font-family="monospace">Qingyun_mountain_valley</text>
<text x="1085" y="836" font-size="9" fill="#4fc3f7" font-family="monospace" text-anchor="end">1↗</text>
<rect x="1125" y="802" width="180" height="52" rx="4"
      fill="#0f3460" stroke="#1a4a7a"
      stroke-width="1"/>
<text x="1133" y="820" font-size="12" fill="#eee" font-family="monospace" font-weight="bold">镜湖小岛</text>
<text x="1133" y="836" font-size="9" fill="#888" font-family="monospace">Qingyun_mountain_mirrorlake</text>
<text x="1295" y="836" font-size="9" fill="#4fc3f7" font-family="monospace" text-anchor="end">2↗</text>
<rect x="75" y="894" width="180" height="52" rx="4"
      fill="#0f3460" stroke="#1a4a7a"
      stroke-width="1"/>
<text x="83" y="912" font-size="12" fill="#eee" font-family="monospace" font-weight="bold">青云山道</text>
<text x="83" y="928" font-size="9" fill="#888" font-family="monospace">Qingyun_mountain_midroad</text>
<text x="245" y="928" font-size="9" fill="#4fc3f7" font-family="monospace" text-anchor="end">1↗</text>
<rect x="285" y="894" width="180" height="52" rx="4"
      fill="#0f3460" stroke="#1a4a7a"
      stroke-width="1"/>
<text x="293" y="912" font-size="12" fill="#eee" font-family="monospace" font-weight="bold">青云山道观</text>
<text x="293" y="928" font-size="9" fill="#888" font-family="monospace">Qingyun_mountain_temple</text>
<text x="455" y="928" font-size="9" fill="#4fc3f7" font-family="monospace" text-anchor="end">1↗</text>
<rect x="495" y="894" width="180" height="52" rx="4"
      fill="#0f3460" stroke="#1a4a7a"
      stroke-width="1"/>
<text x="503" y="912" font-size="12" fill="#eee" font-family="monospace" font-weight="bold">青云山石碑</text>
<text x="503" y="928" font-size="9" fill="#888" font-family="monospace">Qingyun_mountain_stonetablet</text>
<text x="665" y="928" font-size="9" fill="#4fc3f7" font-family="monospace" text-anchor="end">1↗</text>
<rect x="705" y="894" width="180" height="52" rx="4"
      fill="#0f3460" stroke="#1a4a7a"
      stroke-width="1"/>
<text x="713" y="912" font-size="12" fill="#eee" font-family="monospace" font-weight="bold">镜湖东岸</text>
<text x="713" y="928" font-size="9" fill="#888" font-family="monospace">Qinyun_moutain_mirrorlake_east</text>
<text x="875" y="928" font-size="9" fill="#4fc3f7" font-family="monospace" text-anchor="end">2↗</text>
<rect x="915" y="894" width="180" height="52" rx="4"
      fill="#0f3460" stroke="#ff9800"
      stroke-width="1"/>
<text x="923" y="912" font-size="12" fill="#eee" font-family="monospace" font-weight="bold">镜湖西岸</text>
<text x="923" y="928" font-size="9" fill="#888" font-family="monospace">Qingyun_mountain_mirrorlake_west</text>
<text x="1085" y="928" font-size="9" fill="#4fc3f7" font-family="monospace" text-anchor="end">3↗</text>
<rect x="1059" y="898" width="30" height="14" rx="3" fill="#ff9800" opacity="0.6"/>
<text x="1074" y="909" font-size="7" fill="#fff" font-family="monospace" text-anchor="middle">跨图</text>
<rect x="75" y="986" width="180" height="52" rx="4"
      fill="#0f3460" stroke="#ff9800"
      stroke-width="1"/>
<text x="83" y="1004" font-size="12" fill="#eee" font-family="monospace" font-weight="bold">青云山下</text>
<text x="83" y="1020" font-size="9" fill="#888" font-family="monospace">Qingyun_mountain_side</text>
<text x="245" y="1020" font-size="9" fill="#4fc3f7" font-family="monospace" text-anchor="end">1↗</text>
<rect x="219" y="990" width="30" height="14" rx="3" fill="#ff9800" opacity="0.6"/>
<text x="234" y="1001" font-size="7" fill="#fff" font-family="monospace" text-anchor="middle">跨图</text>
</svg>
